<svg width="10" height="10" viewBox="0 0 10 10" fill="none" xmlns="http://www.w3.org/2000/svg">
<path d="M0 7.12622V9.00122H1.875L7.405 3.47122L5.53 1.59622L0 7.12622ZM8.855 2.02122C8.90135 1.97497 8.93812 1.92002 8.96322 1.85953C8.98831 1.79905 9.00122 1.73421 9.00122 1.66872C9.00122 1.60324 8.98831 1.5384 8.96322 1.47791C8.93812 1.41742 8.90135 1.36248 8.855 1.31622L7.685 0.146222C7.63874 0.0998702 7.5838 0.0630964 7.52331 0.0380057C7.46283 0.012915 7.39798 0 7.3325 0C7.26702 0 7.20217 0.012915 7.14169 0.0380057C7.0812 0.0630964 7.02626 0.0998702 6.98 0.146222L6.065 1.06122L7.94 2.93622L8.855 2.02122Z" fill="black"/>
</svg>
