<svg width="25" height="23" viewBox="0 0 25 23" fill="none" xmlns="http://www.w3.org/2000/svg">
<path d="M4.10156 22.4375H1.36719C1.21179 22.4375 1.06275 22.3758 0.952867 22.2659C0.842983 22.156 0.78125 22.007 0.78125 21.8516V3.49219C0.78125 3.33679 0.842983 3.18775 0.952867 3.07787C1.06275 2.96798 1.21179 2.90625 1.36719 2.90625H4.10156C4.25696 2.90625 4.406 2.96798 4.51588 3.07787C4.62577 3.18775 4.6875 3.33679 4.6875 3.49219V21.8516C4.6875 22.007 4.62577 22.156 4.51588 22.2659C4.406 22.3758 4.25696 22.4375 4.10156 22.4375ZM11.7188 9.15625V6.61719C11.7188 6.46179 11.657 6.31275 11.5471 6.20287C11.4372 6.09298 11.2882 6.03125 11.1328 6.03125H6.05469C5.89929 6.03125 5.75025 6.09298 5.64037 6.20287C5.53048 6.31275 5.46875 6.46179 5.46875 6.61719V9.15625H11.7188ZM5.46875 19.3125V21.8516C5.46875 22.007 5.53048 22.156 5.64037 22.2659C5.75025 22.3758 5.89929 22.4375 6.05469 22.4375H11.1328C11.2882 22.4375 11.4372 22.3758 11.5471 22.2659C11.657 22.156 11.7188 22.007 11.7188 21.8516V19.3125H5.46875ZM5.46875 10.7188H11.7188V17.75H5.46875V10.7188ZM16.6016 22.4375H13.0859C12.9305 22.4375 12.7815 22.3758 12.6716 22.2659C12.5617 22.156 12.5 22.007 12.5 21.8516V1.14844C12.5 0.993037 12.5617 0.844002 12.6716 0.734117C12.7815 0.624232 12.9305 0.5625 13.0859 0.5625H16.6016C16.757 0.5625 16.906 0.624232 17.0159 0.734117C17.1258 0.844002 17.1875 0.993037 17.1875 1.14844V21.8516C17.1875 22.007 17.1258 22.156 17.0159 22.2659C16.906 22.3758 16.757 22.4375 16.6016 22.4375ZM18.0176 3.91699L19.4824 21.8774C19.4889 21.9562 19.5113 22.0328 19.5482 22.1027C19.5851 22.1726 19.6357 22.2343 19.6971 22.2841C19.7584 22.3339 19.8292 22.3708 19.9052 22.3926C19.9812 22.4143 20.0607 22.4205 20.1392 22.4106L23.6626 21.9712C23.8126 21.9524 23.9496 21.8764 24.0449 21.759C24.1401 21.6416 24.1863 21.492 24.1738 21.3413L22.7051 3.45361C22.6986 3.37592 22.6767 3.3003 22.6406 3.23118C22.6046 3.16207 22.5551 3.10084 22.4951 3.05109C22.435 3.00134 22.3657 2.96407 22.2911 2.94147C22.2165 2.91886 22.1381 2.91137 22.0605 2.91943L18.5386 3.28613C18.3866 3.30255 18.2471 3.37771 18.1497 3.49557C18.0524 3.61343 18.005 3.76466 18.0176 3.91699Z" fill="#B59BFF"/>
</svg>
